<svg width="16" height="15" viewBox="0 0 16 15" fill="none" xmlns="http://www.w3.org/2000/svg">
<path d="M7.87001 0.180489C3.7899 0.180489 0.478516 3.49188 0.478516 7.57198C0.478516 11.6521 3.7899 14.9635 7.87001 14.9635H11.5658V13.4852H7.87001C4.6621 13.4852 1.95681 10.7799 1.95681 7.57198C1.95681 4.36407 4.6621 1.65879 7.87001 1.65879C11.0779 1.65879 13.7832 4.36407 13.7832 7.57198V8.62897C13.7832 9.21289 13.2584 9.78943 12.6745 9.78943C12.0906 9.78943 11.5658 9.21289 11.5658 8.62897V7.57198C11.5658 5.53193 9.91006 3.87624 7.87001 3.87624C5.82996 3.87624 4.17426 5.53193 4.17426 7.57198C4.17426 9.61203 5.82996 11.2677 7.87001 11.2677C8.89004 11.2677 9.82136 10.8538 10.4866 10.1812C10.967 10.839 11.7949 11.2677 12.6745 11.2677C14.1306 11.2677 15.2615 10.0851 15.2615 8.62897V7.57198C15.2615 3.49188 11.9501 0.180489 7.87001 0.180489V0.180489ZM7.87001 9.78943C6.64302 9.78943 5.65256 8.79897 5.65256 7.57198C5.65256 6.34499 6.64302 5.35453 7.87001 5.35453C9.097 5.35453 10.0875 6.34499 10.0875 7.57198C10.0875 8.79897 9.097 9.78943 7.87001 9.78943Z" fill="black"/>
</svg>
