<svg width="14" height="17" viewBox="0 0 14 17" fill="none" xmlns="http://www.w3.org/2000/svg">
<path d="M11.6527 5.8264H13.131C13.327 5.8264 13.515 5.90428 13.6536 6.0429C13.7922 6.18151 13.8701 6.36952 13.8701 6.56555V15.4353C13.8701 15.6314 13.7922 15.8194 13.6536 15.958C13.515 16.0966 13.327 16.1745 13.131 16.1745H1.30458C1.10854 16.1745 0.920539 16.0966 0.781921 15.958C0.643304 15.8194 0.56543 15.6314 0.56543 15.4353V6.56555C0.56543 6.36952 0.643304 6.18151 0.781921 6.0429C0.920539 5.90428 1.10854 5.8264 1.30458 5.8264H2.78288V5.08725C2.78288 3.91105 3.25012 2.78301 4.08183 1.95131C4.91353 1.11961 6.04157 0.652359 7.21777 0.652359C8.39398 0.652359 9.52201 1.11961 10.3537 1.95131C11.1854 2.78301 11.6527 3.91105 11.6527 5.08725V5.8264ZM10.1744 5.8264V5.08725C10.1744 4.30312 9.86287 3.55109 9.3084 2.99662C8.75393 2.44216 8.00191 2.13066 7.21777 2.13066C6.43364 2.13066 5.68161 2.44216 5.12714 2.99662C4.57267 3.55109 4.26118 4.30312 4.26118 5.08725V5.8264H10.1744ZM6.47862 10.2613V11.7396H7.95692V10.2613H6.47862ZM3.52203 10.2613V11.7396H5.00033V10.2613H3.52203ZM9.43522 10.2613V11.7396H10.9135V10.2613H9.43522Z" fill="black"/>
</svg>
