<svg width="12" height="10" viewBox="0 0 12 10" fill="none" xmlns="http://www.w3.org/2000/svg">
<path d="M11.3225 3.42285C10.7127 2.13858 9.98687 1.09135 9.14504 0.281174L6.64799 2.7784C6.85848 3.32863 6.90514 3.92804 6.78232 4.50421C6.65951 5.08038 6.37248 5.60867 5.95591 6.02524C5.53934 6.4418 5.01106 6.72883 4.43488 6.85165C3.85871 6.97446 3.2593 6.92781 2.70907 6.71732L0.591064 8.83533C1.57367 9.29002 2.66657 9.51737 3.86977 9.51737C7.19941 9.51737 9.68364 7.78325 11.3225 4.31502C11.3884 4.17554 11.4225 4.0232 11.4225 3.86894C11.4225 3.71468 11.3884 3.56233 11.3225 3.42285V3.42285Z" fill="black"/>
</svg>
